<?xml version="1.0" encoding="UTF-8" standalone="no"?>
<!-- Generator: Adobe Illustrator 16.1.0, SVG Export Plug-In . SVG Version: 6.00 Build 0)  -->

<svg
   version="1.1"
   id="Layer_1"
   x="0px"
   y="0px"
   width="512px"
   height="512px"
   viewBox="0 0 512 512"
   enable-background="new 0 0 512 512"
   xml:space="preserve"
   sodipodi:docname="dustbin_120823.svg"
   inkscape:version="1.3.2 (091e20ef0f, 2023-11-25)"
   xmlns:inkscape="http://www.inkscape.org/namespaces/inkscape"
   xmlns:sodipodi="http://sodipodi.sourceforge.net/DTD/sodipodi-0.dtd"
   xmlns="http://www.w3.org/2000/svg"
   xmlns:svg="http://www.w3.org/2000/svg"><defs
   id="defs3" /><sodipodi:namedview
   id="namedview3"
   pagecolor="#ffffff"
   bordercolor="#000000"
   borderopacity="0.25"
   inkscape:showpageshadow="2"
   inkscape:pageopacity="0.0"
   inkscape:pagecheckerboard="0"
   inkscape:deskcolor="#d1d1d1"
   inkscape:zoom="1.5507812"
   inkscape:cx="255.35517"
   inkscape:cy="217.95467"
   inkscape:window-width="1920"
   inkscape:window-height="1008"
   inkscape:window-x="0"
   inkscape:window-y="0"
   inkscape:window-maximized="1"
   inkscape:current-layer="Layer_1" />
<g
   id="g1">
</g>
<g
   id="g3"
   style="fill:#ffffff;fill-opacity:1">
	<rect
   x="160"
   y="192"
   width="48"
   height="207"
   id="rect1"
   style="fill:#ffffff;fill-opacity:1" />
	<rect
   x="232"
   y="192"
   width="48"
   height="207"
   id="rect2"
   style="fill:#ffffff;fill-opacity:1" />
	<rect
   x="304"
   y="192"
   width="48"
   height="207"
   id="rect3"
   style="fill:#ffffff;fill-opacity:1" />
	<path
   d="M374.845,112V80c0-20.872-14.845-48-46.845-48H184c-32,0-45.855,16-45.855,48v32H56v48h32v272c0,32,18.145,48,50.145,48   H376c32,0,48-16,48-48V160h32v-48H374.845z M184,80h144v32H184V80z M376,432H138.145V160H376V432z"
   id="path3"
   style="fill:#ffffff;fill-opacity:1" />
</g>
</svg>
