<?xml version="1.0" encoding="UTF-8"?>
<!DOCTYPE svg PUBLIC "-//W3C//DTD SVG 1.1//EN" "http://www.w3.org/Graphics/SVG/1.1/DTD/svg11.dtd">
<svg xmlns="http://www.w3.org/2000/svg" version="1.1" width="1800px" height="900px" style="shape-rendering:geometricPrecision; text-rendering:geometricPrecision; image-rendering:optimizeQuality; fill-rule:evenodd; clip-rule:evenodd" xmlns:xlink="http://www.w3.org/1999/xlink">
<g><path style="opacity:0.999" fill="#fefefe" d="M 89.5,88.5 C 172.501,88.3333 255.501,88.5 338.5,89C 342.275,90.4421 345.108,92.9421 347,96.5C 348.376,105.098 348.876,113.765 348.5,122.5C 355.841,122.334 363.174,122.5 370.5,123C 381.743,125.91 388.576,133.077 391,144.5C 391.5,173.165 391.667,201.831 391.5,230.5C 404.167,230.5 416.833,230.5 429.5,230.5C 429.5,219.167 429.5,207.833 429.5,196.5C 512.834,196.333 596.167,196.5 679.5,197C 683.667,198.5 686.5,201.333 688,205.5C 689.37,213.764 689.87,222.097 689.5,230.5C 696.841,230.334 704.174,230.5 711.5,231C 723.224,234.057 730.058,241.557 732,253.5C 732.5,354.166 732.667,454.833 732.5,555.5C 744.833,555.5 757.167,555.5 769.5,555.5C 769.5,543.833 769.5,532.167 769.5,520.5C 851.834,520.333 934.167,520.5 1016.5,521C 1022.13,521.957 1025.96,525.124 1028,530.5C 1029.13,539.763 1029.63,549.096 1029.5,558.5C 1029.33,566.833 1029.17,575.167 1029,583.5C 1027.57,589.261 1024.07,593.095 1018.5,595C 935.501,595.5 852.501,595.667 769.5,595.5C 769.821,583.919 769.488,572.419 768.5,561C 756.99,560.576 745.323,560.576 733.5,561C 732.671,589.095 732.171,617.261 732,645.5C 730.653,655.501 725.486,662.668 716.5,667C 707.582,668.414 698.582,668.914 689.5,668.5C 689.666,676.507 689.5,684.507 689,692.5C 687.395,698.438 683.562,701.938 677.5,703C 595.167,703.5 512.834,703.667 430.5,703.5C 430.5,691.833 430.5,680.167 430.5,668.5C 417.5,668.5 404.5,668.5 391.5,668.5C 391.977,699.23 391.477,729.896 390,760.5C 386.649,768.52 380.816,773.687 372.5,776C 364.507,776.5 356.507,776.666 348.5,776.5C 348.666,784.84 348.5,793.173 348,801.5C 346.167,806 343,809.167 338.5,811C 255.501,811.5 172.501,811.667 89.5,811.5C 89.5,786.5 89.5,761.5 89.5,736.5C 172.501,736.333 255.501,736.5 338.5,737C 343,738.833 346.167,742 348,746.5C 348.183,754.745 348.683,762.912 349.5,771C 356.167,771.667 362.833,771.667 369.5,771C 378.558,769.608 384.058,764.442 386,755.5C 386.667,695.5 386.667,635.5 386,575.5C 384.325,569.159 380.492,564.659 374.5,562C 365.916,560.59 357.25,560.09 348.5,560.5C 348.881,569.568 348.381,578.568 347,587.5C 344.64,591.597 341.14,594.097 336.5,595C 254.167,595.5 171.834,595.667 89.5,595.5C 89.5,570.5 89.5,545.5 89.5,520.5C 172.501,520.333 255.501,520.5 338.5,521C 343,522.833 346.167,526 348,530.5C 348.183,538.745 348.683,546.912 349.5,555C 357.833,555.333 366.167,555.667 374.5,556C 381.807,559.062 386.974,564.229 390,571.5C 391.477,602.104 391.977,632.77 391.5,663.5C 404.5,663.5 417.5,663.5 430.5,663.5C 430.5,651.833 430.5,640.167 430.5,628.5C 513.167,628.333 595.834,628.5 678.5,629C 684,630.5 687.5,634 689,639.5C 689.5,647.493 689.666,655.493 689.5,663.5C 697.893,663.83 706.227,663.33 714.5,662C 720.061,659.438 723.894,655.272 726,649.5C 727.156,582.863 727.656,516.197 727.5,449.5C 727.656,382.803 727.156,316.137 726,249.5C 724.283,244.451 721.116,240.618 716.5,238C 707.582,236.586 698.582,236.086 689.5,236.5C 689.666,243.841 689.5,251.174 689,258.5C 688.004,264.159 684.838,267.993 679.5,270C 596.167,270.5 512.834,270.667 429.5,270.5C 429.5,259.167 429.5,247.833 429.5,236.5C 416.833,236.5 404.167,236.5 391.5,236.5C 391.667,265.169 391.5,293.835 391,322.5C 388.576,333.923 381.743,341.09 370.5,344C 363.174,344.5 355.841,344.666 348.5,344.5C 348.666,352.507 348.5,360.507 348,368.5C 346.167,373 343,376.167 338.5,378C 255.501,378.5 172.501,378.667 89.5,378.5C 89.5,353.833 89.5,329.167 89.5,304.5C 172.501,304.333 255.501,304.5 338.5,305C 343,306.833 346.167,310 348,314.5C 348.5,322.493 348.666,330.493 348.5,338.5C 356.507,338.666 364.507,338.5 372.5,338C 378.667,335.833 382.833,331.667 385,325.5C 386.148,294.872 386.648,264.205 386.5,233.5C 386.648,202.795 386.148,172.128 385,141.5C 382.807,135.307 378.641,131.141 372.5,129C 364.507,128.5 356.507,128.334 348.5,128.5C 348.876,137.235 348.376,145.902 347,154.5C 345.167,157.667 342.667,160.167 339.5,162C 256.167,162.5 172.834,162.667 89.5,162.5C 89.5,137.833 89.5,113.167 89.5,88.5 Z M 94.5,93.5 C 175.501,93.3333 256.501,93.5 337.5,94C 340.381,95.2506 342.214,97.4173 343,100.5C 343.5,107.826 343.666,115.159 343.5,122.5C 260.5,122.5 177.5,122.5 94.5,122.5C 94.5,112.833 94.5,103.167 94.5,93.5 Z M 94.5,128.5 C 177.5,128.5 260.5,128.5 343.5,128.5C 343.666,135.841 343.5,143.174 343,150.5C 341.833,153.667 339.667,155.833 336.5,157C 255.834,157.5 175.167,157.667 94.5,157.5C 94.5,147.833 94.5,138.167 94.5,128.5 Z M 435.5,201.5 C 516.167,201.333 596.834,201.5 677.5,202C 680.756,203.587 682.923,206.087 684,209.5C 684.5,216.492 684.666,223.492 684.5,230.5C 601.167,230.5 517.833,230.5 434.5,230.5C 434.411,220.904 434.744,211.237 435.5,201.5 Z M 434.5,236.5 C 517.833,236.5 601.167,236.5 684.5,236.5C 684.666,243.508 684.5,250.508 684,257.5C 682.895,260.937 680.728,263.437 677.5,265C 596.833,265.667 516.167,265.667 435.5,265C 434.631,255.705 434.297,246.205 434.5,236.5 Z M 94.5,309.5 C 175.167,309.333 255.834,309.5 336.5,310C 339.333,311.5 341.5,313.667 343,316.5C 343.5,323.826 343.666,331.159 343.5,338.5C 260.5,338.5 177.5,338.5 94.5,338.5C 94.5,328.833 94.5,319.167 94.5,309.5 Z M 94.5,344.5 C 177.5,344.5 260.5,344.5 343.5,344.5C 343.666,351.841 343.5,359.174 343,366.5C 341.5,369.333 339.333,371.5 336.5,373C 255.834,373.5 175.167,373.667 94.5,373.5C 94.5,363.833 94.5,354.167 94.5,344.5 Z M 94.5,525.5 C 174.834,525.333 255.167,525.5 335.5,526C 338.845,526.677 341.345,528.511 343,531.5C 343.5,539.493 343.666,547.493 343.5,555.5C 260.5,555.5 177.5,555.5 94.5,555.5C 94.5,545.5 94.5,535.5 94.5,525.5 Z M 774.5,526.5 C 855.834,526.333 937.167,526.5 1018.5,527C 1021.66,528.48 1023.5,530.98 1024,534.5C 1024.5,541.492 1024.67,548.492 1024.5,555.5C 941.167,555.5 857.833,555.5 774.5,555.5C 774.5,545.833 774.5,536.167 774.5,526.5 Z M 94.5,560.5 C 177.5,560.5 260.5,560.5 343.5,560.5C 343.666,568.507 343.5,576.507 343,584.5C 341.457,586.378 339.624,587.878 337.5,589C 256.501,589.5 175.501,589.667 94.5,589.5C 94.5,579.833 94.5,570.167 94.5,560.5 Z M 774.5,560.5 C 857.833,560.5 941.167,560.5 1024.5,560.5C 1024.67,567.508 1024.5,574.508 1024,581.5C 1023.13,586.37 1020.3,589.203 1015.5,590C 1010.17,590.167 1004.83,590.333 999.5,590.5C 925.08,590.58 850.413,590.413 775.5,590C 774.514,580.25 774.181,570.416 774.5,560.5 Z M 435.5,633.5 C 515.834,633.333 596.167,633.5 676.5,634C 679.913,635.077 682.413,637.244 684,640.5C 684.5,648.159 684.666,655.826 684.5,663.5C 601.5,663.5 518.5,663.5 435.5,663.5C 435.5,653.5 435.5,643.5 435.5,633.5 Z M 435.5,668.5 C 518.5,668.5 601.5,668.5 684.5,668.5C 684.666,676.174 684.5,683.841 684,691.5C 682.833,694 681,695.833 678.5,697C 597.501,697.5 516.501,697.667 435.5,697.5C 435.5,687.833 435.5,678.167 435.5,668.5 Z M 94.5,741.5 C 174.834,741.333 255.167,741.5 335.5,742C 339.02,742.504 341.52,744.337 343,747.5C 343.5,755.493 343.666,763.493 343.5,771.5C 260.5,771.5 177.5,771.5 94.5,771.5C 94.5,761.5 94.5,751.5 94.5,741.5 Z M 94.5,776.5 C 177.5,776.5 260.5,776.5 343.5,776.5C 343.666,784.174 343.5,791.841 343,799.5C 341.833,802 340,803.833 337.5,805C 256.501,805.5 175.501,805.667 94.5,805.5C 94.5,795.833 94.5,786.167 94.5,776.5 Z"/></g>
<g><path style="opacity:1" fill="#fefefe" d="M 1459.5,88.5 C 1542.83,88.5 1626.17,88.5 1709.5,88.5C 1709.5,113.167 1709.5,137.833 1709.5,162.5C 1626.17,162.667 1542.83,162.5 1459.5,162C 1455.61,159.778 1452.78,156.612 1451,152.5C 1450.5,144.507 1450.33,136.507 1450.5,128.5C 1441.42,128.086 1432.42,128.586 1423.5,130C 1418.56,132.946 1415.06,137.112 1413,142.5C 1412.83,172.667 1412.67,202.833 1412.5,233C 1412.34,264.226 1412.84,295.393 1414,326.5C 1416.59,332.088 1420.75,335.921 1426.5,338C 1434.49,338.5 1442.49,338.666 1450.5,338.5C 1450.33,330.493 1450.5,322.493 1451,314.5C 1452.78,310.388 1455.61,307.222 1459.5,305C 1542.83,304.5 1626.17,304.333 1709.5,304.5C 1709.5,329.167 1709.5,353.833 1709.5,378.5C 1626.17,378.667 1542.83,378.5 1459.5,378C 1455.61,375.778 1452.78,372.612 1451,368.5C 1450.5,360.507 1450.33,352.507 1450.5,344.5C 1441.44,344.846 1432.44,344.346 1423.5,343C 1415.07,339.571 1409.9,333.404 1408,324.5C 1407.5,295.169 1407.33,265.835 1407.5,236.5C 1394.5,236.5 1381.5,236.5 1368.5,236.5C 1368.5,247.833 1368.5,259.167 1368.5,270.5C 1285.5,270.667 1202.5,270.5 1119.5,270C 1115,268.167 1111.83,265 1110,260.5C 1109.5,252.507 1109.33,244.507 1109.5,236.5C 1101.49,236.334 1093.49,236.5 1085.5,237C 1079.33,239.167 1075.17,243.333 1073,249.5C 1071.84,316.137 1071.34,382.803 1071.5,449.5C 1071.34,516.197 1071.84,582.863 1073,649.5C 1075.11,655.272 1078.94,659.438 1084.5,662C 1092.77,663.33 1101.11,663.83 1109.5,663.5C 1109.12,654.765 1109.62,646.098 1111,637.5C 1112.63,632.938 1115.79,630.105 1120.5,629C 1203.5,628.5 1286.5,628.333 1369.5,628.5C 1369.5,640.167 1369.5,651.833 1369.5,663.5C 1382.17,663.5 1394.83,663.5 1407.5,663.5C 1407.04,633.125 1407.54,602.792 1409,572.5C 1411.38,565.457 1415.88,560.29 1422.5,557C 1431.75,555.583 1441.09,555.083 1450.5,555.5C 1450.33,547.826 1450.5,540.159 1451,532.5C 1452.09,526.412 1455.59,522.579 1461.5,521C 1544.17,520.5 1626.83,520.333 1709.5,520.5C 1709.5,545.5 1709.5,570.5 1709.5,595.5C 1627.17,595.667 1544.83,595.5 1462.5,595C 1456.92,593.089 1452.92,589.423 1450.5,584C 1450.56,576.377 1450.56,568.543 1450.5,560.5C 1442.83,560.334 1435.16,560.5 1427.5,561C 1419.07,563.767 1414.24,569.6 1413,578.5C 1412.33,636.833 1412.33,695.167 1413,753.5C 1414.12,761.293 1418.29,766.793 1425.5,770C 1433.76,771.37 1442.1,771.87 1450.5,771.5C 1450.33,763.826 1450.5,756.159 1451,748.5C 1452.06,742.438 1455.56,738.605 1461.5,737C 1544.17,736.5 1626.83,736.333 1709.5,736.5C 1709.5,761.5 1709.5,786.5 1709.5,811.5C 1626.83,811.667 1544.17,811.5 1461.5,811C 1456.67,808.833 1453.17,805.333 1451,800.5C 1450.5,792.507 1450.33,784.507 1450.5,776.5C 1441.43,776.881 1432.43,776.381 1423.5,775C 1414.85,770.885 1409.68,764.051 1408,754.5C 1407.5,725.835 1407.33,697.169 1407.5,668.5C 1394.83,668.5 1382.17,668.5 1369.5,668.5C 1369.5,680.167 1369.5,691.833 1369.5,703.5C 1287.17,703.667 1204.83,703.5 1122.5,703C 1116.87,702.043 1113.04,698.876 1111,693.5C 1109.63,685.236 1109.13,676.903 1109.5,668.5C 1101.49,668.666 1093.49,668.5 1085.5,668C 1074.99,664.167 1068.82,656.667 1067,645.5C 1066.5,544.834 1066.33,444.167 1066.5,343.5C 1053.83,343.5 1041.17,343.5 1028.5,343.5C 1028.5,355.167 1028.5,366.833 1028.5,378.5C 945.833,378.667 863.166,378.5 780.5,378C 775.427,376.594 771.927,373.428 770,368.5C 769.333,350.5 769.333,332.5 770,314.5C 771.605,308.562 775.438,305.062 781.5,304C 863.833,303.5 946.166,303.333 1028.5,303.5C 1028.5,315.167 1028.5,326.833 1028.5,338.5C 1041.17,338.5 1053.83,338.5 1066.5,338.5C 1066.33,310.165 1066.5,281.831 1067,253.5C 1068.34,243.161 1073.84,235.994 1083.5,232C 1092.1,230.624 1100.76,230.124 1109.5,230.5C 1109.33,222.493 1109.5,214.493 1110,206.5C 1111.86,201.974 1115.03,198.808 1119.5,197C 1202.5,196.5 1285.5,196.333 1368.5,196.5C 1368.5,207.833 1368.5,219.167 1368.5,230.5C 1381.5,230.5 1394.5,230.5 1407.5,230.5C 1407.33,201.165 1407.5,171.831 1408,142.5C 1409.9,133.596 1415.07,127.429 1423.5,124C 1432.44,122.654 1441.44,122.154 1450.5,122.5C 1450.33,114.493 1450.5,106.493 1451,98.5C 1452.98,94.3619 1455.81,91.0286 1459.5,88.5 Z M 1461.5,93.5 C 1542.5,93.5 1623.5,93.5 1704.5,93.5C 1704.5,103.167 1704.5,112.833 1704.5,122.5C 1621.5,122.5 1538.5,122.5 1455.5,122.5C 1455.33,114.826 1455.5,107.159 1456,99.5C 1457.36,96.9774 1459.19,94.9774 1461.5,93.5 Z M 1455.5,128.5 C 1538.5,128.5 1621.5,128.5 1704.5,128.5C 1704.5,138.167 1704.5,147.833 1704.5,157.5C 1623.83,157.667 1543.17,157.5 1462.5,157C 1459.43,156.261 1457.26,154.428 1456,151.5C 1455.5,143.841 1455.33,136.174 1455.5,128.5 Z M 1121.5,201.5 C 1202.17,201.5 1282.83,201.5 1363.5,201.5C 1363.5,211.167 1363.5,220.833 1363.5,230.5C 1280.5,230.5 1197.5,230.5 1114.5,230.5C 1114.09,222.083 1114.59,213.749 1116,205.5C 1117.5,203.531 1119.33,202.198 1121.5,201.5 Z M 1114.5,236.5 C 1197.5,236.5 1280.5,236.5 1363.5,236.5C 1363.5,246.167 1363.5,255.833 1363.5,265.5C 1282.83,265.667 1202.17,265.5 1121.5,265C 1118.35,263.918 1116.19,261.751 1115,258.5C 1114.5,251.174 1114.33,243.841 1114.5,236.5 Z M 779.5,309.5 C 860.833,309.5 942.167,309.5 1023.5,309.5C 1023.5,319.167 1023.5,328.833 1023.5,338.5C 940.5,338.5 857.5,338.5 774.5,338.5C 774.334,330.826 774.5,323.159 775,315.5C 776.332,313.34 777.832,311.34 779.5,309.5 Z M 1462.5,309.5 C 1543.17,309.5 1623.83,309.5 1704.5,309.5C 1704.5,319.167 1704.5,328.833 1704.5,338.5C 1621.5,338.5 1538.5,338.5 1455.5,338.5C 1455.33,330.826 1455.5,323.159 1456,315.5C 1457.44,312.558 1459.6,310.558 1462.5,309.5 Z M 774.5,343.5 C 857.5,343.5 940.5,343.5 1023.5,343.5C 1023.5,353.167 1023.5,362.833 1023.5,372.5C 942.166,372.667 860.833,372.5 779.5,372C 777.622,370.457 776.122,368.624 775,366.5C 774.5,358.841 774.334,351.174 774.5,343.5 Z M 1455.5,344.5 C 1538.5,344.5 1621.5,344.5 1704.5,344.5C 1704.5,354.167 1704.5,363.833 1704.5,373.5C 1623.83,373.667 1543.17,373.5 1462.5,373C 1459.43,372.261 1457.26,370.428 1456,367.5C 1455.5,359.841 1455.33,352.174 1455.5,344.5 Z M 1463.5,525.5 C 1543.83,525.5 1624.17,525.5 1704.5,525.5C 1704.5,535.5 1704.5,545.5 1704.5,555.5C 1621.5,555.5 1538.5,555.5 1455.5,555.5C 1455.09,547.083 1455.59,538.749 1457,530.5C 1458.8,528.174 1460.97,526.508 1463.5,525.5 Z M 1455.5,560.5 C 1538.5,560.5 1621.5,560.5 1704.5,560.5C 1704.5,570.167 1704.5,579.833 1704.5,589.5C 1623.5,589.667 1542.5,589.5 1461.5,589C 1458.34,587.52 1456.5,585.02 1456,581.5C 1455.5,574.508 1455.33,567.508 1455.5,560.5 Z M 1123.5,633.5 C 1203.84,633.167 1284.17,633.5 1364.5,634.5C 1364.38,644.038 1364.38,653.704 1364.5,663.5C 1281.17,663.5 1197.83,663.5 1114.5,663.5C 1114.33,656.492 1114.5,649.492 1115,642.5C 1116.02,637.654 1118.85,634.654 1123.5,633.5 Z M 1114.5,668.5 C 1197.83,668.5 1281.17,668.5 1364.5,668.5C 1364.5,678.167 1364.5,687.833 1364.5,697.5C 1283.17,697.667 1201.83,697.5 1120.5,697C 1117.83,695.164 1115.99,692.664 1115,689.5C 1114.5,682.508 1114.33,675.508 1114.5,668.5 Z M 1463.5,741.5 C 1543.83,741.5 1624.17,741.5 1704.5,741.5C 1704.5,751.5 1704.5,761.5 1704.5,771.5C 1621.5,771.5 1538.5,771.5 1455.5,771.5C 1455.09,763.083 1455.59,754.749 1457,746.5C 1458.8,744.174 1460.97,742.508 1463.5,741.5 Z M 1455.5,776.5 C 1538.5,776.5 1621.5,776.5 1704.5,776.5C 1704.5,786.167 1704.5,795.833 1704.5,805.5C 1623.5,805.667 1542.5,805.5 1461.5,805C 1458.62,803.749 1456.79,801.583 1456,798.5C 1455.5,791.174 1455.33,783.841 1455.5,776.5 Z"/></g>
</svg>
